<svg xmlns="http://www.w3.org/2000/svg" viewBox="0 0 245.33 343.67"><defs><style>.a{fill:#fff;}.a,.b{stroke:#3e3e3e;stroke-miterlimit:10;stroke-width:5px;}.b{fill:none;}</style></defs><title>referenceFav</title><path class="a" d="M129.83,81.83V404.7a1.17,1.17,0,0,0,1.73,1l101-55.41a1.17,1.17,0,0,1,1.12,0l101,55.41a1.17,1.17,0,0,0,1.73-1V81.83a1.17,1.17,0,0,0-1.17-1.17H131A1.17,1.17,0,0,0,129.83,81.83Z" transform="translate(-127.33 -78.17)"/><rect class="a" x="2.5" y="2.5" width="206.67" height="46" rx="1.17" ry="1.17"/><circle class="a" cx="179.83" cy="278.17" r="63"/><path class="a" d="M268.14,356.33l27.11,26.93a1.17,1.17,0,0,0,1.69,0l49.25-54.67" transform="translate(-127.33 -78.17)"/><line class="b" x1="2.5" y1="48.5" x2="208" y2="48.5"/></svg>