<svg xmlns="http://www.w3.org/2000/svg" viewBox="0 0 500 500"><defs><style>.a{fill:#fff;}.a,.b{stroke:#3e3e3e;stroke-miterlimit:10;stroke-width:5px;}.b{fill:none;}</style></defs><title>referenceFav-01</title><path class="a" d="M129.83,81.83V404.7a1.17,1.17,0,0,0,1.73,1l101-55.41a1.17,1.17,0,0,1,1.12,0l101,55.41a1.17,1.17,0,0,0,1.73-1V81.83a1.17,1.17,0,0,0-1.17-1.17H131A1.17,1.17,0,0,0,129.83,81.83Z"/><rect class="a" x="129.83" y="80.67" width="206.67" height="46" rx="1.17" ry="1.17"/><circle class="a" cx="307.17" cy="356.33" r="63"/><path class="a" d="M268.14,356.33l27.11,26.93a1.17,1.17,0,0,0,1.69,0l49.25-54.67"/><line class="b" x1="129.83" y1="126.67" x2="335.33" y2="126.67"/></svg>