<?xml version="1.0" standalone="no"?>
<!DOCTYPE svg PUBLIC "-//W3C//DTD SVG 20010904//EN"
 "http://www.w3.org/TR/2001/REC-SVG-20010904/DTD/svg10.dtd">
<svg version="1.0" xmlns="http://www.w3.org/2000/svg"
 width="16.000000pt" height="16.000000pt" viewBox="0 0 16.000000 16.000000"
 preserveAspectRatio="xMidYMid meet">
<metadata>
Created by potrace 1.11, written by Peter Selinger 2001-2013
</metadata>
<g transform="translate(0.000000,16.000000) scale(0.001163,-0.001163)"
fill="#000000" stroke="none">
<path d="M2049 13743 c-22 -10 -43 -31 -57 -56 l-22 -40 0 -6492 c0 -5657 2
-6497 15 -6527 33 -80 148 -108 228 -55 15 9 29 17 33 17 3 0 19 9 35 21 16
11 29 18 29 15 0 -4 17 4 38 17 20 13 73 43 117 67 44 24 94 51 110 60 116 65
145 80 183 100 23 12 45 26 48 31 3 5 9 7 14 4 4 -3 13 2 20 10 7 8 16 15 20
15 4 0 56 27 116 61 60 34 118 65 129 70 11 5 34 17 50 27 17 10 68 38 115 63
47 24 87 46 90 49 6 6 85 49 150 82 25 12 47 25 50 29 3 3 15 9 28 13 12 4 22
11 22 16 0 5 14 11 30 15 17 4 30 10 30 13 0 4 15 13 33 21 17 8 34 17 37 20
4 5 38 23 190 103 25 12 47 25 50 29 5 5 28 17 150 81 25 12 47 25 50 28 3 3
28 17 55 31 92 48 120 64 126 72 3 5 9 7 12 5 4 -1 15 5 27 14 11 10 20 16 20
13 0 -2 21 7 48 22 26 14 56 31 67 37 11 6 22 13 25 16 3 3 28 16 55 30 71 36
159 84 165 90 5 5 76 43 185 99 27 14 55 31 61 36 6 6 31 19 55 30 24 11 46
22 49 25 3 4 48 29 100 57 52 28 117 63 145 78 106 60 132 74 175 96 25 12 73
40 107 61 35 21 63 35 63 32 0 -3 12 3 28 14 15 10 62 38 106 60 43 23 83 46
90 51 6 5 18 11 26 13 8 2 17 6 20 9 3 4 30 19 60 34 30 15 57 30 60 34 11 13
110 58 110 50 0 -5 6 -9 14 -9 8 0 16 -4 18 -8 2 -4 30 -22 63 -39 33 -16 89
-47 125 -67 36 -20 75 -42 88 -48 12 -6 22 -21 23 -32 1 -12 2 -43 4 -71 1
-27 5 -79 9 -115 4 -36 9 -78 11 -95 3 -31 20 -131 30 -175 11 -49 17 -85 18
-97 0 -7 4 -13 8 -13 5 0 6 -7 3 -15 -4 -8 -1 -22 6 -30 7 -8 10 -15 6 -15 -3
0 0 -16 8 -35 8 -19 13 -35 10 -35 -2 0 3 -17 12 -37 8 -21 17 -45 19 -53 12
-58 162 -397 185 -420 3 -3 14 -21 24 -40 41 -76 181 -281 226 -331 8 -9 33
-38 55 -64 45 -53 202 -214 256 -260 85 -74 226 -182 288 -220 8 -5 35 -22 58
-37 23 -16 46 -28 52 -28 6 0 11 -3 11 -7 0 -5 10 -13 23 -19 12 -6 72 -36
132 -67 130 -65 231 -107 239 -99 3 3 6 0 6 -6 0 -6 15 -14 33 -17 17 -4 37
-10 42 -13 6 -4 16 -7 23 -8 8 -2 21 -6 30 -10 9 -4 28 -9 42 -11 13 -2 30 -9
37 -15 7 -6 13 -8 13 -5 0 3 15 1 33 -4 17 -6 41 -12 52 -14 11 -3 31 -8 45
-11 43 -10 166 -32 220 -40 221 -29 595 -25 776 10 223 42 322 68 457 118 45
16 88 30 95 31 6 0 12 4 12 9 0 4 7 8 15 8 8 0 23 4 33 9 9 6 67 34 127 63 61
28 116 58 123 65 7 7 17 13 22 13 9 0 141 80 150 91 3 3 16 12 30 19 31 16 99
69 122 94 10 10 18 16 18 12 0 -4 6 -1 14 6 7 7 35 31 61 53 97 81 267 256
350 360 46 57 165 224 165 230 0 3 16 29 35 58 19 28 35 57 35 64 0 7 5 13 11
13 5 0 8 4 5 9 -4 5 -2 11 2 13 13 5 131 253 137 288 0 3 6 14 12 26 7 11 14
32 17 45 2 13 11 40 19 59 8 19 23 64 32 100 8 36 19 72 22 80 3 8 7 22 8 30
2 8 11 49 20 90 9 41 18 94 20 117 2 24 6 46 8 50 11 19 22 191 22 358 0 188
-10 331 -30 433 -3 15 -8 41 -10 57 -5 29 -10 54 -20 95 -3 11 -7 28 -9 38
-34 143 -75 270 -125 387 -37 86 -136 285 -143 285 -4 0 -8 7 -8 15 0 9 -4 21
-10 28 -8 10 -134 196 -165 245 -5 8 -17 23 -25 31 -8 9 -28 34 -45 55 -123
157 -346 363 -525 486 -36 25 -67 47 -70 50 -3 3 -18 12 -35 20 -16 8 -39 23
-49 33 -11 9 -25 17 -30 17 -6 0 -20 7 -30 15 -19 14 -19 85 -18 3492 1 1913
3 3601 4 3751 2 176 -1 272 -7 272 -7 0 -7 3 0 8 6 4 10 69 10 157 0 88 -4
153 -10 157 -7 5 -7 8 0 8 6 0 10 58 10 155 0 97 -4 155 -10 155 -7 0 -7 3 0
8 6 4 10 69 10 157 0 88 -4 153 -10 157 -7 5 -7 8 0 8 9 0 11 159 3 250 -3 43
-61 104 -108 113 -18 4 -1883 7 -4144 6 -3748 0 -4114 -1 -4147 -16z"/>
</g>
</svg>
